<svg id="Capa_1" enable-background="new 0 0 512 512" height="512" viewBox="0 0 512 512" width="512" xmlns="http://www.w3.org/2000/svg"><g><path d="m99.884 147.1-35.477-35.494c-5.856-5.858-5.854-15.356.006-21.213 5.857-5.855 15.355-5.855 21.213.006l35.477 35.494c5.856 5.858 5.854 15.356-.006 21.213-5.855 5.852-15.354 5.857-21.213-.006z" fill="#ffe14d"/><path d="m318.483 147.105c-5.859-5.856-5.862-15.354-.006-21.213l35.477-35.494c5.855-5.86 15.354-5.863 21.213-.006 5.859 5.856 5.862 15.354.006 21.213l-35.477 35.495c-5.853 5.857-15.352 5.864-21.213.005z" fill="#fabe2c"/><g fill="#ffe14d"><path d="m65.184 260.846h-50.184c-8.284 0-15-6.716-15-15s6.716-15 15-15h50.184c8.284 0 15 6.716 15 15s-6.716 15-15 15z"/><path d="m234.79 41.06v50.18c0 8.28-6.72 15-15 15s-15-6.72-15-15v-50.18c0-8.29 6.72-15 15-15s15 6.71 15 15z"/><path d="m333.55 245.19c0 62.83-50.93 113.76-113.76 113.76s-113.76-50.93-113.76-113.76 50.93-113.77 113.76-113.77 113.76 50.94 113.76 113.77z"/></g><path d="m234.79 41.06v50.18c0 8.28-6.72 15-15 15v-80.18c8.28 0 15 6.71 15 15z" fill="#fabe2c"/><path d="m333.55 245.19c0 62.83-50.93 113.76-113.76 113.76v-227.53c62.83 0 113.76 50.94 113.76 113.77z" fill="#fabe2c"/><path d="m512 348.5c0 75.79-61.66 137.44-137.46 137.44h-211.05c-49.16 0-89.16-39.99-89.16-89.16 0-49.16 40-89.16 89.16-89.16 4.19 0 8.36.29 12.48.87 10.98-17.43 26.14-31.3 43.82-40.59 16.26-8.55 34.67-13.23 53.93-13.23.12 0 .24 0 .36.01 25.97-27.83 62.17-43.64 100.46-43.64 75.8 0 137.46 61.66 137.46 137.46z" fill="#7ed8f6"/><path d="m512 348.5c0 75.79-61.66 137.44-137.46 137.44h-154.75v-218.04c16.26-8.55 34.67-13.23 53.93-13.23.12 0 .24 0 .36.01 25.97-27.83 62.17-43.64 100.46-43.64 75.8 0 137.46 61.66 137.46 137.46z" fill="#6aa9ff"/></g></svg>